control3min_grf.mot
version=1
nRows=12
nColumns 19
inDegrees=yes
endheader
time	1_ground_force_vx	1_ground_force_vy	1_ground_force_vz	1_ground_force_px	1_ground_force_py	1_ground_force_pz	1_ground_torque_x	1_ground_torque_y	1_ground_torque_z	2_ground_force_vx	2_ground_force_vy	2_ground_force_vz	2_ground_force_px	2_ground_force_py	2_ground_force_pz	2_ground_torque_x	2_ground_torque_y	2_ground_torque_z
            3.751500	           -0.477896	           29.948196	           -5.510828	           -0.262972	            0.006282	           -0.420423	            0.001505	           -0.094316	            0.017355	            2.632408	           24.115501	            5.059298	           -0.273028	            0.005344	           -0.654457	            0.002084	            0.019094	            0.004006
            3.752000	           -0.661298	           28.866959	           -5.606722	           -0.261991	            0.006273	           -0.418257	            0.002891	           -0.126182	            0.024508	            1.980977	           22.825600	            4.632625	           -0.277080	            0.005344	           -0.658746	            0.010876	            0.125316	            0.025434
            3.752500	           -0.522496	           26.882491	           -5.248719	           -0.259834	            0.006284	           -0.420651	            0.002828	           -0.145505	            0.028409	            2.171803	           21.904699	            4.863900	           -0.268653	            0.005362	           -0.655209	            0.002910	            0.029347	            0.006516
            3.753000	           -0.568384	           25.260681	           -5.393129	           -0.266231	            0.006314	           -0.427852	            0.001413	           -0.062817	            0.013411	            1.661853	           20.428982	            5.046575	           -0.277641	            0.005326	           -0.654040	            0.007814	            0.096055	            0.023728
            3.753500	           -0.841993	           24.176871	           -4.892670	           -0.264424	            0.006283	           -0.420658	            0.002915	           -0.083691	            0.016937	            1.576649	           18.035887	            4.709577	           -0.277025	            0.005288	           -0.642830	            0.005683	            0.065012	            0.016976
            3.754000	           -0.704835	           23.096286	           -5.126928	           -0.260214	            0.006298	           -0.424071	            0.000692	           -0.022683	            0.005035	            1.250070	           17.666071	            4.802258	           -0.276100	            0.005341	           -0.656918	            0.005667	            0.080092	            0.021772
            3.754500	           -0.750154	           21.473493	           -5.042059	           -0.262302	            0.006285	           -0.420921	            0.000692	           -0.019815	            0.004653	            1.114111	           16.377028	            4.656934	           -0.275702	            0.005306	           -0.646586	            0.003644	            0.053567	            0.015232
            3.755000	           -1.071086	           20.392230	           -5.137612	           -0.259974	            0.006307	           -0.426029	            0.005114	           -0.097368	            0.024531	            1.021803	           16.007891	            4.796444	           -0.274886	            0.005353	           -0.658873	            0.001019	            0.015965	            0.004783
            3.755500	           -1.024560	           20.391060	           -4.862591	           -0.261581	            0.006249	           -0.412568	            0.004703	           -0.093600	            0.022320	            0.979502	           14.719520	            4.557224	           -0.280180	            0.005316	           -0.654007	           -0.002161	           -0.032480	           -0.010056
            3.756000	           -1.161678	           18.768445	           -4.823350	           -0.262809	            0.006285	           -0.420946	            0.007445	           -0.120280	            0.030911	            0.698279	           14.719509	            4.275775	           -0.275894	            0.005358	           -0.661477	            0.000376	            0.007932	            0.002304
            3.756500	           -1.298066	           17.504986	           -4.461572	           -0.261968	            0.006300	           -0.424450	            0.008602	           -0.116000	            0.029566	            0.518876	           12.508885	            4.314898	           -0.275863	            0.005341	           -0.656434	            0.002252	            0.054292	            0.018728
            3.757000	           -1.435577	           16.784094	           -4.510179	           -0.259678	            0.006252	           -0.413271	            0.001044	           -0.012204	            0.003279	            0.613240	           12.325075	            4.314201	           -0.278025	            0.005324	           -0.653993	           -0.000072	           -0.001453	           -0.000509
